PathFileType	4	(X/Y/Z)	C:/Users/beibeiliu/ov580/test_trc/User2\sequence.19_training_dense_left.trc
DataRate	CameraRate	NumFrames	NumMarkers	Units	OrigDataRate	OrigDataStartFrame	OrigNumFrames
120	120	11	19	mm	120	63	500
Frame#	Time	ThumbCMC			ThumbMCP			ThumbIP			ThumbTip			IndexMCP			IndexPIP			IndexTip			MiddleMCP			MiddlePIP			MiddleTip			RingMCP			RingPIP			RingTip			PinkyMCP			PinkyPIP			PinkyTip			BackHand1			BackHand2			BackHand3	
		X0	Y0	Z0	X1	Y1	Z1	X2	Y2	Z2	X3	Y3	Z3	X4	Y4	Z4	X5	Y5	Z5	X6	Y6	Z6	X7	Y7	Z7	X8	Y8	Z8	X9	Y9	Z9	X10	Y10	Z10	X11	Y11	Z11	X12	Y12	Z12	X13	Y13	Z13	X14	Y14	Z14	X15	Y15	Z15	X16	Y16	Z16	X17	Y17	Z17	X18	Y18	Z18	
62	0.516667	-142.678	-27.813	58.5269	-121.774	-37.2175	34.6771	-104.383	-47.2263	12.2693	-90.0271	-56.1573	-10.399	-155.073	-17.9338	-27.1937	-147.197	-19.569	-51.5778	-142.237	-24.0672	-82.4478	-184.463	-20.1682	-34.8533	-183.531	-26.6586	-68.5633	-189.106	-33.3057	-97.1492	-213.206	-28.8561	-28.6594	-213.859	-33.3693	-54.1697	-218.027	-43.4781	-84.9154	-232.845	-38.2536	-7.73688	-243.015	-42.0789	-32.0894	-252.444	-39.6818	-54.9055	-208.545	-14.0028	31.0841	-207.793	-8.25664	60.0824	-174.486	-5.91961	42.4941	
63	0.525	-143.696	-28.2054	57.2237	-121.988	-37.6477	36.5856	-104.327	-47.7828	11.1041	-90.9438	-58.2534	-9.68456	-154.32	-17.3641	-25.9081	-146.13	-19.1484	-54.3763	-139.486	-22.3028	-81.8529	-185.332	-19.2445	-36.5652	-183.753	-24.8654	-65.5126	-183.993	-32.5447	-97.7015	-210.788	-27.2104	-25.7801	-213.072	-33.2839	-55.8603	-217.451	-41.8997	-82.9244	-229.077	-36.9632	-6.7062	-241.966	-41.7014	-31.4066	-247.091	-39.4604	-56.969	-206.99	-14.429	29.527	-213.243	-6.62418	61.6964	-173.624	-3.89701	40.4413	
64	0.533333	-145.952	-27.657	55.4332	-121.778	-39.4447	39.665	-100.797	-49.6551	8.29493	-92.2547	-61.5515	-8.24073	-154.507	-15.7581	-27.9518	-145.33	-17.614	-55.4366	-138.002	-21.2942	-78.1759	-182.537	-16.3919	-35.6596	-184.25	-23.8185	-68.508	-185.823	-31.6397	-98.8411	-213.007	-25.658	-28.8588	-214.216	-31.4698	-54.7549	-214.459	-40.5537	-84.2989	-228.657	-36.4981	-9.53396	-240.566	-40.0034	-33.6911	-250.877	-39.8456	-54.2243	-209.417	-13.623	29.025	-210.954	-7.88679	60.6408	-173.75	-5.78622	41.9029	
65	0.541667	-144.911	-27.9618	55.8673	-121.339	-39.7356	34.4188	-103.559	-52.8596	13.9655	-91.7438	-63.489	-7.42279	-154.117	-13.6302	-22.5292	-146.573	-16.3582	-54.1454	-139.371	-19.5342	-82.1695	-182.026	-14.1855	-35.4445	-185.843	-21.5097	-67.862	-187.94	-29.4349	-95.5286	-207.705	-24.0774	-29.9166	-212.372	-30.4222	-57.3959	-215.466	-38.9376	-84.266	-229.64	-35.4743	-12.9763	-242.309	-41.0105	-33.9167	-245.116	-38.5528	-58.5414	-209.256	-13.695	31.0342	-213.794	-5.61613	57.9408	-177.079	-3.43405	42.9803	
66	0.55	-143.096	-28.0523	56.6213	-119.679	-40.1118	39.3911	-102.543	-53.7839	12.3624	-89.8808	-65.7147	-6.88279	-153.188	-11.6446	-21.0626	-145.116	-12.975	-51.3516	-138.285	-18.3149	-79.9027	-184.409	-11.3036	-35.1791	-181.537	-15.8327	-63.579	-184.941	-28.6268	-97.9785	-209.406	-22.154	-29.4781	-215.163	-27.3421	-56.117	-212.804	-35.8377	-81.7151	-230.597	-34.1833	-8.50478	-237.966	-39.8509	-34.6673	-248.437	-41.4545	-57.1615	-208.685	-10.9715	31.3248	-212.83	-7.06104	59.0866	-175.911	-2.11488	44.3233	
67	0.558333	-141.972	-26.4561	56.1639	-120.734	-40.7645	39.3054	-100.481	-53.7526	11.8875	-94.0254	-66.499	-9.75427	-156.409	-9.68126	-22.7577	-146.185	-10.5265	-50.5821	-139.197	-14.9741	-78.5835	-185.652	-9.74223	-33.1782	-184.92	-14.3183	-66.9938	-187.081	-25.645	-96.3421	-210.019	-19.6638	-28.6407	-213.638	-26.469	-58.6394	-212.346	-35.8144	-84.9626	-232.237	-33.2682	-13.6673	-240.249	-39.1032	-38.1476	-244.886	-41.4703	-63.1655	-210.304	-8.90893	30.5261	-211.169	-6.53495	58.6589	-175.833	-2.03463	43.6705	
68	0.566667	-142.561	-27.0198	57.1159	-119.89	-41.1091	39.1864	-104.519	-53.4756	14.3221	-92.1946	-66.8901	-7.67056	-154.738	-7.601	-25.2837	-146.81	-7.74523	-55.7881	-144.323	-13.7637	-80.921	-186.466	-6.63812	-33.6998	-187.057	-11.9285	-64.9634	-184.789	-23.1031	-95.9487	-208.922	-17.2641	-27.3092	-213.871	-23.819	-56.8453	-216.317	-33.4632	-82.7595	-234.325	-31.6153	-11.9869	-238.574	-36.4488	-38.5137	-241.846	-38.601	-61.8542	-209.708	-8.89594	27.0818	-214.429	-3.86164	59.6345	-177.564	-2.69845	42.3829	
69	0.575	-146.875	-27.0339	56.9666	-122.314	-40.2686	36.0043	-102.766	-52.6688	11.9279	-91.7001	-66.0283	-6.4658	-152.457	-5.91823	-24.8247	-147.568	-7.20987	-55.6297	-144.364	-12.7103	-81.5331	-187.519	-5.84243	-36.6486	-188.256	-9.75823	-65.6979	-186.157	-22.0375	-99.038	-213.523	-17.2574	-28.4437	-217.159	-21.5394	-54.9805	-213.946	-31.4948	-83.4599	-234.85	-29.819	-13.1864	-238.657	-34.7485	-38.1116	-245.324	-36.889	-58.8973	-212.644	-7.52087	31.1077	-215.351	-5.10947	63.7741	-178.053	-1.96533	43.694	
70	0.583333	-144.181	-25.4806	56.4388	-126.137	-39.0908	36.802	-103.64	-52.157	11.6071	-92.406	-63.7175	-8.38118	-153.939	-4.36765	-25.1796	-146.48	-4.7204	-49.9591	-144.894	-11.0739	-83.7748	-184.939	-5.13778	-33.8437	-188.216	-9.24315	-66.0128	-183.993	-19.3888	-97.147	-214.742	-15.6306	-27.8155	-215.174	-21.411	-59.6583	-216.177	-31.7568	-88.6324	-236.544	-29.2877	-14.0816	-243.855	-35.128	-35.3225	-245.315	-36.8091	-63.6954	-214.342	-7.48989	28.0543	-210.936	-4.66418	62.2921	-178.296	-1.12202	44.0391	
71	0.591667	-144.708	-23.8088	52.7375	-123.353	-38.3999	39.8657	-106.427	-51.1376	11.7399	-91.8042	-64.0156	-7.56761	-159.679	-4.85476	-27.1207	-149.333	-5.42	-55.0761	-145.063	-10.6009	-84.1654	-187.194	-3.49519	-33.6943	-185.529	-8.1307	-66.4921	-185.83	-18.3541	-100.824	-212.983	-15.02	-31.1024	-216.988	-19.3462	-54.9097	-217.754	-30.0448	-88.6012	-235.216	-29.2529	-9.54028	-242.122	-33.9102	-37.8005	-247.018	-34.2014	-64.0407	-214.014	-7.22889	26.341	-213.997	-2.8452	60.2463	-175.945	0.839799	41.7561	
72	0.6	-145.159	-23.3862	57.3938	-124.324	-37.3553	38.6406	-103.207	-49.9804	12.7008	-95.2781	-62.2438	-8.30411	-159.6	-3.68399	-27.2209	-152.338	-3.86771	-53.8013	-144.945	-8.3951	-80.367	-190.38	-3.87433	-36.9783	-190.892	-8.89913	-69.8414	-190.269	-16.7688	-98.9591	-215.715	-14.5648	-30.2668	-217.611	-18.5057	-58.742	-216.637	-27.5974	-88.536	-232.599	-27.708	-11.3476	-243.561	-32.7263	-36.4844	-252.036	-33.3245	-61.338	-216.369	-5.64869	29.1835	-213.778	-1.44849	63.153	-179.958	1.04251	43.5005	
